<svg xmlns="http://www.w3.org/2000/svg" width="32.9" height="32.9" viewBox="0 0 32.9 32.9">
  <g id="Raggruppa_7452" data-name="Raggruppa 7452" transform="translate(-287.5 -319.387)">
    <rect id="Rettangolo_145954" data-name="Rettangolo 145954" width="9.087" height="6.48" transform="translate(299.406 344.927)" fill="#fff"/>
    <rect id="Rettangolo_145955" data-name="Rettangolo 145955" width="30.497" height="24.509" transform="translate(288.493 320.429)" fill="#73d7ff"/>
    <circle id="Ellisse_320" data-name="Ellisse 320" cx="6.54" cy="6.54" r="6.54" transform="translate(300.979 327.461) rotate(-22.374)" fill="#fff"/>
    <g id="Raggruppa_7451" data-name="Raggruppa 7451" transform="translate(287.5 319.387)">
      <path id="Tracciato_59896" data-name="Tracciato 59896" d="M294.5,352.287a.705.705,0,1,1,0-1.41h2.853a.342.342,0,0,0,.212-.073c.444-.347,1.477-1.478,1.477-4.47a.345.345,0,0,0-.345-.344h-8.683a2.523,2.523,0,0,1-2.519-2.521V321.908a2.523,2.523,0,0,1,2.519-2.521H317.88a2.524,2.524,0,0,1,2.52,2.521v21.561a2.524,2.524,0,0,1-2.52,2.521H309.2a.344.344,0,0,0-.345.344c0,3,1.025,4.124,1.466,4.47a.342.342,0,0,0,.212.073H313.4a.705.705,0,0,1,0,1.41Zm6.3-6.3a.344.344,0,0,0-.344.344,9.05,9.05,0,0,1-.8,4.044.344.344,0,0,0,.308.5h7.978a.344.344,0,0,0,.308-.5,9.05,9.05,0,0,1-.8-4.044.344.344,0,0,0-.345-.344ZM290.019,320.8a1.124,1.124,0,0,0-1.109,1.11v21.561a1.124,1.124,0,0,0,1.109,1.11H317.88a1.125,1.125,0,0,0,1.11-1.11V321.908a1.124,1.124,0,0,0-1.11-1.11Z" transform="translate(-287.5 -319.387)" fill="#003575"/>
    </g>
    <path id="Tracciato_59898" data-name="Tracciato 59898" d="M315.324,342l-4.2-4.2a.51.51,0,0,0-.072-.057h0a1.112,1.112,0,0,1-.007-.955l0,0a7.429,7.429,0,0,0,1.338-4.259,7.528,7.528,0,1,0-7.528,7.528,7.427,7.427,0,0,0,4.311-1.375l0,.01a.9.9,0,0,1,.968.108l4.2,4.2a.705.705,0,1,0,1-1Zm-10.47-3.356a6.118,6.118,0,1,1,6.118-6.118A6.124,6.124,0,0,1,304.854,338.648Z" transform="translate(4.521 -1.417)" fill="#003575"/>
    <g id="Raggruppa_7456" data-name="Raggruppa 7456" transform="translate(-18.703 202.385)">
      <path id="Tracciato_59910" data-name="Tracciato 59910" d="M318.17,125.691a2.932,2.932,0,1,0-5.8-.618c0,.055,0,.111,0,.167a3.373,3.373,0,0,0,.55,6.7c.116,0,.233-.006.349-.017a24.881,24.881,0,0,0,3.3-.059,3.294,3.294,0,0,0,1.6-6.174Z" transform="translate(0 0)" fill="#fff"/>
      <path id="Tracciato_59911" data-name="Tracciato 59911" d="M317.153,131.858l.78-.712,1.3.492a.3.3,0,0,0,.1.019.29.29,0,0,0,.1-.561l-1.023-.388.5-.455a.29.29,0,0,0-.391-.429l-1.759,1.606a.29.29,0,0,0,.391.429ZM316.9,128.8l.915-.661a.29.29,0,0,0-.34-.47l-.472.341-.033-1.015a.29.29,0,0,0-.58.018l.045,1.406-.18.13-.118-.347-.322-1.11a.29.29,0,1,0-.557.161l.323,1.117,0,.013.261.764-.175,2.144-.268-.252a.284.284,0,0,0-.1-.061l-.371-.133-.092-.52.089-1.746a.29.29,0,1,0-.579-.029l-.069,1.365-.188-.087-.618-.553a.29.29,0,0,0-.387.432l.65.583a.3.3,0,0,0,.072.047l.484.225.054.308-.346.122-1.322-.15a.29.29,0,0,0-.066.577l.924.1-.338.6a.29.29,0,1,0,.507.283l.487-.871.478-.168.379.135.6.567.014,1.274v6.785a.29.29,0,0,0,.58,0v-6.788l-.019-1.761.2-2.443.02-.012.451-.325Z" transform="translate(-1.281 -2.091)" fill="#003575"/>
    </g>
  </g>
</svg>
