<svg xmlns="http://www.w3.org/2000/svg" width="32.9" height="32.9" viewBox="0 0 32.9 32.9">
  <g id="Raggruppa_7458" data-name="Raggruppa 7458" transform="translate(-68.5 -246.565)">
    <rect id="Rettangolo_145957" data-name="Rettangolo 145957" width="31.148" height="24.936" rx="1.066" transform="translate(69.547 247.525)" fill="#fff"/>
    <path id="Tracciato_59912" data-name="Tracciato 59912" d="M82.013,265.707H78.025V253.058h19.6v12.306h-10.1l-5.324,4.3Z" transform="translate(-2.403 -1.638)" fill="#73d7ff"/>
    <path id="Tracciato_59913" data-name="Tracciato 59913" d="M103.644,278.227l1.729-1.729L96.4,273.974l1.916,9.44,1.963-1.869,4.112,4.112,3.307-3.306Z" transform="translate(-7.039 -6.915)" fill="#73d7ff"/>
    <g id="Raggruppa_7457" data-name="Raggruppa 7457" transform="translate(68.5 246.565)">
      <path id="Tracciato_59914" data-name="Tracciato 59914" d="M104.465,278.384a.345.345,0,0,1,0-.488l1.357-1.357a.706.706,0,0,0-.345-1.187l-9.445-2.1a.72.72,0,0,0-.154-.016.705.705,0,0,0-.689.858l2.1,9.446a.7.7,0,0,0,.493.525.673.673,0,0,0,.194.028.712.712,0,0,0,.5-.206l1.358-1.357a.344.344,0,0,1,.487,0l3.457,3.456a.7.7,0,0,0,1,0l3.149-3.149a.707.707,0,0,0,0-1Zm1.718,4.2-1.665,1.664a.344.344,0,0,1-.487,0l-3.457-3.456a.7.7,0,0,0-1,0l-.748.747a.345.345,0,0,1-.244.1.331.331,0,0,1-.1-.014.343.343,0,0,1-.239-.256l-1.326-5.97a.345.345,0,0,1,.336-.419.359.359,0,0,1,.075.008l5.97,1.326a.344.344,0,0,1,.169.58l-.747.747a.707.707,0,0,0,0,1l3.457,3.456A.346.346,0,0,1,106.183,282.583Z" transform="translate(-75.229 -253.294)" fill="#003575"/>
      <path id="Tracciato_59915" data-name="Tracciato 59915" d="M98.879,246.565H71.021a2.523,2.523,0,0,0-2.521,2.52v21.561a2.523,2.523,0,0,0,2.521,2.521H79.7a.345.345,0,0,1,.345.344c0,2.992-1.033,4.123-1.478,4.471a.346.346,0,0,1-.212.073H75.5a.705.705,0,0,0,0,1.411H88.1a.705.705,0,0,0,0-1.411H80.96a.344.344,0,0,1-.308-.5,9.041,9.041,0,0,0,.8-4.045.344.344,0,0,1,.345-.344H87.05a.705.705,0,1,0,0-1.41H71.021a1.111,1.111,0,0,1-1.11-1.11V249.085a1.111,1.111,0,0,1,1.11-1.11H98.879a1.111,1.111,0,0,1,1.11,1.11v18.129a.705.705,0,0,0,1.41,0V249.085A2.523,2.523,0,0,0,98.879,246.565Z" transform="translate(-68.5 -246.565)" fill="#003575"/>
      <path id="Tracciato_59916" data-name="Tracciato 59916" d="M83.243,259.205H94.792a.705.705,0,0,0,0-1.41H83.243a.705.705,0,0,0,0,1.41Z" transform="translate(-72.041 -249.398)" fill="#003575"/>
      <path id="Tracciato_59917" data-name="Tracciato 59917" d="M94.792,264.82a.705.705,0,0,0,0-1.41H83.243a.705.705,0,0,0,0,1.41Z" transform="translate(-72.041 -250.815)" fill="#003575"/>
      <path id="Tracciato_59918" data-name="Tracciato 59918" d="M81.52,270.315a.7.7,0,0,0,.747-.085l4.96-3.969a.346.346,0,0,1,.215-.076H96.2A2.085,2.085,0,0,0,98.28,264.1V253.935a1.757,1.757,0,0,0-1.755-1.755H78.678a1.757,1.757,0,0,0-1.755,1.755v10.5a1.756,1.756,0,0,0,1.755,1.754h2.1a.345.345,0,0,1,.345.345v3.149A.71.71,0,0,0,81.52,270.315Zm-2.842-5.539a.345.345,0,0,1-.345-.345l0-10.5a.344.344,0,0,1,.345-.344H96.525a.344.344,0,0,1,.345.345V264.1a.673.673,0,0,1-.672.672H87.075a.71.71,0,0,0-.441.154l-3.543,2.835a.344.344,0,0,1-.559-.269v-2.014a.707.707,0,0,0-.705-.706Z" transform="translate(-70.625 -247.982)" fill="#003575"/>
    </g>
  </g>
</svg>
