<?xml version="1.0" encoding="utf-8"?>
<!-- Generator: Adobe Illustrator 24.3.0, SVG Export Plug-In . SVG Version: 6.00 Build 0)  -->
<svg version="1.1" id="Livello_1" xmlns="http://www.w3.org/2000/svg" xmlns:xlink="http://www.w3.org/1999/xlink" x="0px" y="0px"
	 viewBox="0 0 32.9 32.9" style="enable-background:new 0 0 32.9 32.9;" xml:space="preserve">
<style type="text/css">
	.st0{fill:#FFFFFF;}
	.st1{fill:#73D7FF;}
	.st2{fill:#003575;}
</style>
<g>
	<polygon class="st0" points="16.5,20.9 19.4,17.3 22.9,10.7 22.6,7.1 19.9,3.2 16.2,2.7 11.8,4.3 10,8.2 11.2,12.7 	"/>
	<circle class="st1" cx="16.5" cy="9" r="2.6"/>
	<polygon class="st1" points="10,11.5 10,26.2 2.7,30.4 2.7,14.6 	"/>
	<polygon class="st1" points="22.9,11.5 22.9,26.2 30.2,30.4 30.2,14.6 	"/>
	<polygon class="st1" points="16.5,24.2 16.5,20.9 10,11.5 10,26.5 16.5,30.2 	"/>
	<polygon class="st1" points="16.5,24.2 16.5,20.9 22.9,11.5 22.9,26.5 16.5,30.2 	"/>
	<g>
		<path class="st2" d="M30.4,31c-0.1,0-0.2,0-0.3-0.1l-7-3.5c0,0-0.1,0-0.1,0c-0.1,0-0.1,0-0.2,0l-6.1,3.5c0,0,0,0-0.1,0l0,0
			c0,0,0,0-0.1,0c-0.1,0-0.1,0-0.2,0s-0.1,0-0.2,0c0,0,0,0-0.1,0l0,0c0,0,0,0-0.1,0l-6.1-3.5c0,0-0.1,0-0.2,0c0,0-0.1,0-0.1,0
			l-7,3.5C2.7,31,2.6,31,2.5,31c-0.1,0-0.2,0-0.3-0.1c-0.2-0.1-0.3-0.3-0.3-0.5V14.6c0-0.3,0.2-0.5,0.4-0.6l4.6-1.9
			c0.1,0,0.2,0,0.2,0c0.3,0,0.5,0.2,0.6,0.4c0.1,0.3,0,0.7-0.3,0.8l-4.1,1.6c-0.1,0-0.2,0.2-0.2,0.3v13.6c0,0.1,0.1,0.2,0.1,0.3
			c0,0,0.1,0,0.2,0c0,0,0.1,0,0.1,0l5.6-2.8c0.1-0.1,0.2-0.2,0.2-0.3v-7.8c0-0.3,0.3-0.6,0.6-0.6c0.3,0,0.6,0.3,0.6,0.6v7.8
			c0,0.1,0.1,0.2,0.2,0.3l4.6,2.6c0,0,0.1,0,0.2,0c0.1,0,0.1,0,0.2,0c0.1-0.1,0.2-0.2,0.2-0.3v-4c0-0.3,0.3-0.6,0.6-0.6
			c0.3,0,0.6,0.3,0.6,0.6v4c0,0.1,0.1,0.2,0.2,0.3c0,0,0.1,0,0.2,0c0.1,0,0.1,0,0.2,0l4.6-2.6c0.1-0.1,0.2-0.2,0.2-0.3v-7.8
			c0-0.3,0.3-0.6,0.6-0.6c0.3,0,0.6,0.3,0.6,0.6v7.8c0,0.1,0.1,0.2,0.2,0.3l5.6,2.8c0,0,0.1,0,0.1,0c0.1,0,0.1,0,0.2,0
			c0.1-0.1,0.1-0.2,0.1-0.3V15.2c0-0.1-0.1-0.2-0.2-0.3l-4.1-1.6c-0.3-0.1-0.5-0.5-0.3-0.8c0.1-0.2,0.3-0.4,0.6-0.4
			c0.1,0,0.2,0,0.2,0l4.6,1.9c0.2,0.1,0.4,0.3,0.4,0.6v15.8c0,0.2-0.1,0.4-0.3,0.5C30.6,31,30.5,31,30.4,31z"/>
		<path class="st2" d="M16.5,21.7c-0.2,0-0.4-0.1-0.5-0.2C15.3,20.6,9.3,12.7,9.3,9c0-3.9,3.2-7.1,7.1-7.1s7.1,3.2,7.1,7.1
			c0,3.7-5.9,11.6-6.6,12.4C16.8,21.6,16.6,21.7,16.5,21.7z M16.5,3.2c-3.2,0-5.9,2.6-5.9,5.9c0,2.7,4.3,8.9,5.6,10.7
			c0.1,0.1,0.1,0.1,0.2,0.1c0.1,0,0.2,0,0.2-0.1c1.3-1.8,5.6-7.9,5.6-10.7C22.3,5.8,19.7,3.2,16.5,3.2z"/>
		<path class="st2" d="M16.5,12.4c-1.9,0-3.4-1.5-3.4-3.4c0-1.9,1.5-3.4,3.4-3.4c1.9,0,3.4,1.5,3.4,3.4
			C19.9,10.9,18.3,12.4,16.5,12.4z M16.5,6.9c-1.2,0-2.2,1-2.2,2.2c0,1.2,1,2.2,2.2,2.2c1.2,0,2.2-1,2.2-2.2
			C18.6,7.8,17.6,6.9,16.5,6.9z"/>
	</g>
</g>
</svg>
