<svg xmlns="http://www.w3.org/2000/svg" width="26.613" height="32.913" viewBox="0 0 26.613 32.913">
  <g id="Raggruppa_7450" data-name="Raggruppa 7450" transform="translate(-218.711 -319.387)">
    <path id="Tracciato_59887" data-name="Tracciato 59887" d="M245.384,321.274v5.25h5.611Z" transform="translate(-6.721 -0.475)" fill="#73d7ff"/>
    <path id="Tracciato_59888" data-name="Tracciato 59888" d="M219.383,320.614h19.033V326.7h6.027v25.2h-25.06Z" transform="translate(-0.169 -0.309)" fill="#73d7ff"/>
    <path id="Tracciato_59889" data-name="Tracciato 59889" d="M231.97,341.387a2.757,2.757,0,0,0,4.109,0l4.33,2.05.779,3.21H226.673l2.173-4.488Z" transform="translate(-2.006 -5.543)" fill="#fff"/>
    <path id="Tracciato_59890" data-name="Tracciato 59890" d="M238.606,331.633c0,2.184-1.422,3.956-3.175,3.956s-3.175-1.771-3.175-3.956,1.422-3.956,3.175-3.956S238.606,329.448,238.606,331.633Z" transform="translate(-3.413 -2.089)" fill="#fff"/>
    <g id="Raggruppa_7450-2" data-name="Raggruppa 7450" transform="translate(218.711 319.387)">
      <path id="Tracciato_59891" data-name="Tracciato 59891" d="M235.2,336.218c-2.162,0-3.855-2.418-3.855-5.505,0-2.737,1.4-4.306,3.855-4.306s3.855,1.569,3.855,4.306C239.057,333.8,237.363,336.218,235.2,336.218Zm0-8.4c-1.645,0-2.445.946-2.445,2.895,0,2.449,1.264,4.095,2.445,4.095s2.445-1.646,2.445-4.095C237.646,328.764,236.846,327.818,235.2,327.818Z" transform="translate(-221.895 -321.156)" fill="#003575"/>
      <path id="Tracciato_59892" data-name="Tracciato 59892" d="M226.436,347.106a.706.706,0,0,1-.7-.8c.343-2.481,1.458-4.984,3.175-4.984h.4c.631,0,.753-.09,1.154-.594l.013-.016a.706.706,0,0,1,1.1.879,2.414,2.414,0,0,1-2.335,1.142h-.335a.341.341,0,0,0-.061.005c-.494.09-1.113,1.153-1.473,2.528a.344.344,0,0,0,.334.432h12.149a.344.344,0,0,0,.334-.432c-.36-1.376-.981-2.439-1.478-2.528a.322.322,0,0,0-.061-.005h-.227a2.491,2.491,0,0,1-2.439-1.141.707.707,0,0,1,.112-.991.7.7,0,0,1,.992.112c.419.526.534.61,1.2.61h.365c1.715,0,2.83,2.5,3.173,4.983a.707.707,0,0,1-.7.8Z" transform="translate(-220.48 -324.693)" fill="#003575"/>
      <path id="Tracciato_59893" data-name="Tracciato 59893" d="M219.416,352.3a.707.707,0,0,1-.705-.705v-31.5a.707.707,0,0,1,.705-.706h18.9a.709.709,0,0,1,.272.055.7.7,0,0,1,.227.153l6.274,6.273a.412.412,0,0,0,.048.063.643.643,0,0,1,.185.462v25.2a.707.707,0,0,1-.705.705Zm1.05-31.5a.344.344,0,0,0-.344.344v29.4a.344.344,0,0,0,.344.344h23.1a.344.344,0,0,0,.344-.344v-23.1a.345.345,0,0,0-.344-.345h-4.376a1.581,1.581,0,0,1-1.58-1.58v-4.376a.345.345,0,0,0-.345-.344Zm18.9,1.485a.339.339,0,0,0-.132.026.344.344,0,0,0-.212.318v2.716a.344.344,0,0,0,.345.344h2.716a.345.345,0,0,0,.244-.588l-2.717-2.715A.341.341,0,0,0,239.368,322.283Z" transform="translate(-218.711 -319.387)" fill="#003575"/>
      <path id="Tracciato_59894" data-name="Tracciato 59894" d="M226.435,353.086a.705.705,0,0,1,0-1.411h14.7a.705.705,0,0,1,0,1.411Z" transform="translate(-220.48 -327.523)" fill="#003575"/>
      <path id="Tracciato_59895" data-name="Tracciato 59895" d="M226.435,357.3a.705.705,0,0,1,0-1.411h11.551a.705.705,0,0,1,0,1.411Z" transform="translate(-220.48 -328.584)" fill="#003575"/>
    </g>
  </g>
</svg>
