<svg xmlns="http://www.w3.org/2000/svg" width="34.229" height="34.229" viewBox="0 0 34.229 34.229">
  <g id="Raggruppa_7448" data-name="Raggruppa 7448" transform="translate(-141.5 -100.602)">
    <rect id="Rettangolo_145950" data-name="Rettangolo 145950" width="31.895" height="6.007" transform="translate(142.72 101.864)" fill="#fff"/>
    <path id="Tracciato_59871" data-name="Tracciato 59871" d="M174.411,110.911H143.424a.8.8,0,0,0-.8.8v22.716a.8.8,0,0,0,.226.558l1.094,1.124a.8.8,0,0,0,.573.243h29.893a.8.8,0,0,0,.8-.8V111.711A.8.8,0,0,0,174.411,110.911Z" transform="translate(-0.25 -2.289)" fill="#73d7ff"/>
    <path id="Tracciato_59872" data-name="Tracciato 59872" d="M174.346,116l4.149,1.811,3.155,3.323.173,3.276h-7.866Z" transform="translate(-7.208 -3.42)" fill="#fff"/>
    <path id="Tracciato_59873" data-name="Tracciato 59873" d="M166.819,118.331l-6.148,1.685-3.12,3.976-.259,6.247,1.6,3.823L163.3,137.3l4.322.784,6.094-2.247,2.507-4.408.432-3.132h-9.681Z" transform="translate(-3.507 -3.937)" fill="#fff"/>
    <g id="Raggruppa_7448-2" data-name="Raggruppa 7448" transform="translate(141.5 100.602)">
      <path id="Tracciato_59874" data-name="Tracciato 59874" d="M144.121,134.831a2.72,2.72,0,0,1-2.621-2.917V102.928a2.62,2.62,0,0,1,2.621-2.326h28.986a2.621,2.621,0,0,1,2.622,2.326v9.33a.734.734,0,1,1-1.467,0V108.98a.359.359,0,0,0-.359-.359H143.326a.359.359,0,0,0-.359.359v22.933c0,.853.475,1.45,1.154,1.45h10.125a.734.734,0,1,1,0,1.467Zm0-32.761a1.2,1.2,0,0,0-1.151.818.33.33,0,0,0,0,.048V106.8a.358.358,0,0,0,.359.359H173.9a.358.358,0,0,0,.359-.359v-3.868a.4.4,0,0,0,0-.052,1.2,1.2,0,0,0-1.151-.806Z" transform="translate(-141.5 -100.602)" fill="#003575"/>
      <circle id="Ellisse_315" data-name="Ellisse 315" cx="0.778" cy="0.778" r="0.778" transform="translate(4.324 3.232)" fill="#003575"/>
      <circle id="Ellisse_316" data-name="Ellisse 316" cx="0.778" cy="0.778" r="0.778" transform="translate(7.436 3.232)" fill="#003575"/>
      <circle id="Ellisse_317" data-name="Ellisse 317" cx="0.778" cy="0.778" r="0.778" transform="translate(10.547 3.232)" fill="#003575"/>
      <path id="Tracciato_59875" data-name="Tracciato 59875" d="M166.568,138.572a10.562,10.562,0,1,1,0-21.124.734.734,0,0,1,.734.734v8.736a.358.358,0,0,0,.358.359H176.4a.734.734,0,0,1,.734.734A10.574,10.574,0,0,1,166.568,138.572Zm-1.092-19.588-.044,0a9.095,9.095,0,1,0,10.16,10.16.358.358,0,0,0-.355-.4h-8.668a.734.734,0,0,1-.734-.734v-8.668a.358.358,0,0,0-.359-.358Z" transform="translate(-144.721 -104.343)" fill="#003575"/>
      <path id="Tracciato_59876" data-name="Tracciato 59876" d="M181.9,124.941h-8.312a.734.734,0,0,1-.734-.734v-8.383a.735.735,0,0,1,.734-.734,9.015,9.015,0,0,1,9.106,9.11.737.737,0,0,1-.734.741Zm-7.22-8.3a.358.358,0,0,0-.359.358v6.121a.359.359,0,0,0,.359.359h6.111a.359.359,0,0,0,.355-.41,7.53,7.53,0,0,0-6.414-6.424A.38.38,0,0,0,174.677,116.637Z" transform="translate(-148.462 -103.82)" fill="#003575"/>
      <path id="Tracciato_59877" data-name="Tracciato 59877" d="M147.849,116.107a.734.734,0,0,1,0-1.467h9.828a.734.734,0,0,1,0,1.467Z" transform="translate(-142.747 -103.72)" fill="#003575"/>
      <path id="Tracciato_59878" data-name="Tracciato 59878" d="M147.849,121.723a.734.734,0,0,1,0-1.467h5.46a.734.734,0,1,1,0,1.467Z" transform="translate(-142.747 -104.967)" fill="#003575"/>
      <path id="Tracciato_59879" data-name="Tracciato 59879" d="M147.849,127.338a.734.734,0,0,1,0-1.467h3.277a.734.734,0,0,1,0,1.467Z" transform="translate(-142.747 -106.214)" fill="#003575"/>
      <path id="Tracciato_59880" data-name="Tracciato 59880" d="M147.849,132.953a.734.734,0,0,1,0-1.467h3.277a.734.734,0,0,1,0,1.467Z" transform="translate(-142.747 -107.461)" fill="#003575"/>
      <path id="Tracciato_59881" data-name="Tracciato 59881" d="M147.849,138.568a.734.734,0,0,1,0-1.467h4.368a.734.734,0,0,1,0,1.467Z" transform="translate(-142.747 -108.708)" fill="#003575"/>
    </g>
  </g>
</svg>
