<svg xmlns="http://www.w3.org/2000/svg" width="34.229" height="34.229" viewBox="0 0 34.229 34.229">
  <g id="Raggruppa_7447" data-name="Raggruppa 7447" transform="translate(-68.5 -173.676)">
    <rect id="Rettangolo_145945" data-name="Rettangolo 145945" width="32.219" height="8.36" transform="translate(69.395 174.786)" fill="#fff"/>
    <path id="Tracciato_59858" data-name="Tracciato 59858" d="M101.517,186.793H69.65V209.35h30.73a1.136,1.136,0,0,0,1.137-1.137Z" transform="translate(-0.255 -2.913)" fill="#73d7ff"/>
    <path id="Tracciato_59859" data-name="Tracciato 59859" d="M105.152,213.137c.1,0,2.836-2.836,2.836-2.836L103.6,205.91l2.249-2.249-9.445-2.37,2.042,9.383,2.123-2.123Z" transform="translate(-6.196 -6.133)" fill="#fff"/>
    <rect id="Rettangolo_145946" data-name="Rettangolo 145946" width="5.451" height="5.451" transform="translate(73.607 187.519)" fill="#fff"/>
    <rect id="Rettangolo_145947" data-name="Rettangolo 145947" width="5.451" height="5.451" transform="translate(83.435 187.519)" fill="#fff"/>
    <rect id="Rettangolo_145948" data-name="Rettangolo 145948" width="5.451" height="5.451" transform="translate(73.607 197.348)" fill="#fff"/>
    <g id="Raggruppa_7447-2" data-name="Raggruppa 7447" transform="translate(68.5 173.676)">
      <path id="Tracciato_59860" data-name="Tracciato 59860" d="M100.106,173.676H71.122A2.586,2.586,0,0,0,68.5,176v28.985a2.72,2.72,0,0,0,2.622,2.918H88.891a.734.734,0,0,0,0-1.467H71.122c-.68,0-1.155-.6-1.155-1.451V184.239a.358.358,0,0,1,.359-.359H100.9a.358.358,0,0,1,.359.359v9.828a.734.734,0,1,0,1.467,0V176A2.587,2.587,0,0,0,100.106,173.676Zm1.155,8.378a.359.359,0,0,1-.359.359H70.326a.359.359,0,0,1-.359-.359v-6.044a.342.342,0,0,1,0-.048,1.2,1.2,0,0,1,1.152-.818h28.984a1.2,1.2,0,0,1,1.151.807.38.38,0,0,1,0,.051Z" transform="translate(-68.5 -173.676)" fill="#003575"/>
      <path id="Tracciato_59861" data-name="Tracciato 59861" d="M74.849,179.292a.734.734,0,1,0,.734.734A.734.734,0,0,0,74.849,179.292Z" transform="translate(-69.747 -174.923)" fill="#003575"/>
      <path id="Tracciato_59862" data-name="Tracciato 59862" d="M78.621,179.292a.734.734,0,1,0,.734.734A.735.735,0,0,0,78.621,179.292Z" transform="translate(-70.585 -174.923)" fill="#003575"/>
      <path id="Tracciato_59863" data-name="Tracciato 59863" d="M82.394,179.292a.734.734,0,1,0,.734.734A.734.734,0,0,0,82.394,179.292Z" transform="translate(-71.423 -174.923)" fill="#003575"/>
      <path id="Tracciato_59864" data-name="Tracciato 59864" d="M104.589,205.771a.36.36,0,0,1,0-.507l1.445-1.445a.734.734,0,0,0-.354-1.234l-9.607-2.218a.787.787,0,0,0-.165-.018.733.733,0,0,0-.718.9l2.218,9.61a.733.733,0,0,0,.516.541.705.705,0,0,0,.2.03.73.73,0,0,0,.517-.215l1.445-1.445a.359.359,0,0,1,.507,0l3.847,3.848a.734.734,0,0,0,1.038,0l2.958-2.957a.736.736,0,0,0,0-1.038Zm2.039,4.62-1.413,1.413a.358.358,0,0,1-.506,0l-3.848-3.848a.733.733,0,0,0-1.037,0L99,208.78a.356.356,0,0,1-.253.106.34.34,0,0,1-.1-.015.359.359,0,0,1-.25-.263l-1.382-5.988a.359.359,0,0,1,.349-.44.353.353,0,0,1,.08.009l5.988,1.382a.359.359,0,0,1,.173.6l-.825.824a.736.736,0,0,0,0,1.038l3.848,3.848a.359.359,0,0,1,0,.507Z" transform="translate(-74.423 -179.6)" fill="#003575"/>
      <path id="Tracciato_59865" data-name="Tracciato 59865" d="M81.042,191.256a.734.734,0,0,0-.734-.734h-5.46a.734.734,0,0,0-.734.734v5.46a.734.734,0,0,0,.734.734h5.46a.734.734,0,0,0,.734-.734Zm-1.467,4.368a.358.358,0,0,1-.359.359H75.941a.358.358,0,0,1-.358-.359v-3.276a.358.358,0,0,1,.358-.359h3.276a.358.358,0,0,1,.359.359Z" transform="translate(-69.747 -177.417)" fill="#003575"/>
      <path id="Tracciato_59866" data-name="Tracciato 59866" d="M80.309,203.156h-5.46a.734.734,0,0,0-.734.734v5.46a.734.734,0,0,0,.734.734h5.46a.734.734,0,0,0,.734-.734v-5.46A.734.734,0,0,0,80.309,203.156Zm-.734,5.1a.358.358,0,0,1-.359.359H75.941a.358.358,0,0,1-.358-.359v-3.276a.358.358,0,0,1,.358-.359h3.276a.358.358,0,0,1,.359.359Z" transform="translate(-69.747 -180.223)" fill="#003575"/>
      <path id="Tracciato_59867" data-name="Tracciato 59867" d="M93.677,196.716v-5.46a.734.734,0,0,0-.733-.734H87.483a.734.734,0,0,0-.733.734v5.46a.734.734,0,0,0,.733.734h5.461A.734.734,0,0,0,93.677,196.716Zm-1.467-1.092a.358.358,0,0,1-.358.359H88.575a.359.359,0,0,1-.359-.359v-3.276a.359.359,0,0,1,.359-.359h3.277a.358.358,0,0,1,.358.359Z" transform="translate(-72.553 -177.417)" fill="#003575"/>
      <path id="Tracciato_59868" data-name="Tracciato 59868" d="M88.575,204.623h2.184a.734.734,0,0,0,0-1.467H87.483a.734.734,0,0,0-.733.734v5.46a.734.734,0,0,0,.733.734h4.369a.734.734,0,1,0,0-1.467H88.575a.359.359,0,0,1-.359-.359v-3.276A.359.359,0,0,1,88.575,204.623Z" transform="translate(-72.553 -180.223)" fill="#003575"/>
      <path id="Tracciato_59869" data-name="Tracciato 59869" d="M100.117,191.989h4.368a.734.734,0,0,0,0-1.467h-4.368a.734.734,0,1,0,0,1.467Z" transform="translate(-75.358 -177.417)" fill="#003575"/>
      <path id="Tracciato_59870" data-name="Tracciato 59870" d="M100.117,197.6h4.368a.734.734,0,1,0,0-1.467h-4.368a.734.734,0,1,0,0,1.467Z" transform="translate(-75.358 -178.664)" fill="#003575"/>
    </g>
    <rect id="Rettangolo_145949" data-name="Rettangolo 145949" width="3.993" height="3.993" rx="0.461" transform="translate(84.164 198.076)" fill="#fff"/>
  </g>
</svg>
