<svg xmlns="http://www.w3.org/2000/svg" width="36.9" height="39.536" viewBox="0 0 36.9 39.536">
  <g id="Raggruppa_7453" data-name="Raggruppa 7453" transform="translate(-287.5 -100.602)">
    <g id="Raggruppa_7454" data-name="Raggruppa 7454" transform="translate(287.5 100.602)">
      <rect id="Rettangolo_145956" data-name="Rettangolo 145956" width="27.438" height="32.382" transform="translate(1.159 6.307)" fill="#fff"/>
      <path id="Tracciato_59899" data-name="Tracciato 59899" d="M306.02,103.884a3.329,3.329,0,0,0-6.328,0h-5.447v5.2h17.325v-5.2Z" transform="translate(-288.184 -100.702)" fill="#73d7ff"/>
      <g id="Raggruppa_7453-2" data-name="Raggruppa 7453">
        <path id="Tracciato_59900" data-name="Tracciato 59900" d="M308.53,138.444H289.609a.414.414,0,0,1-.414-.414V107.756a.414.414,0,0,1,.414-.414h2.522a.414.414,0,0,1,.414.414v1.262a.848.848,0,0,0,.847.847h17.659a.848.848,0,0,0,.847-.847v-1.262a.415.415,0,0,1,.414-.414h2.523a.414.414,0,0,1,.413.414v10.092a.847.847,0,0,0,1.695,0V107.756a2.11,2.11,0,0,0-2.108-2.108h-2.523a.415.415,0,0,1-.414-.414v-1.262a.848.848,0,0,0-.847-.847h-4.477a.416.416,0,0,1-.359-.207,4.6,4.6,0,0,0-7.989,0,.416.416,0,0,1-.359.207h-4.477a.848.848,0,0,0-.847.847v1.262a.414.414,0,0,1-.414.414h-2.522a2.111,2.111,0,0,0-2.109,2.108v30.273a2.111,2.111,0,0,0,2.109,2.109H308.53a.847.847,0,0,0,0-1.695Zm-14.29-33.21a.414.414,0,0,1,.414-.414h4.016a.852.852,0,0,0,.8-.564,2.916,2.916,0,0,1,5.508,0,.848.848,0,0,0,.8.563h4.016a.414.414,0,0,1,.414.414v2.522a.414.414,0,0,1-.414.414H294.654a.414.414,0,0,1-.414-.414Z" transform="translate(-287.5 -100.602)" fill="#003575"/>
        <path id="Tracciato_59901" data-name="Tracciato 59901" d="M313.608,118.3a.848.848,0,0,0-.847-.847h-7.568a.847.847,0,0,0,0,1.695h7.568A.848.848,0,0,0,313.608,118.3Z" transform="translate(-289.209 -102.311)" fill="#003575"/>
        <path id="Tracciato_59902" data-name="Tracciato 59902" d="M308.563,126.718a.849.849,0,0,0-.847-.848h-2.523a.848.848,0,0,0,0,1.7h2.523A.849.849,0,0,0,308.563,126.718Z" transform="translate(-289.209 -103.165)" fill="#003575"/>
        <path id="Tracciato_59903" data-name="Tracciato 59903" d="M305.192,134.293a.848.848,0,0,0,0,1.7h1.262a.848.848,0,0,0,0-1.7Z" transform="translate(-289.209 -104.02)" fill="#003575"/>
        <path id="Tracciato_59904" data-name="Tracciato 59904" d="M300.777,114.81a.833.833,0,0,0-.506-.17.843.843,0,0,0-.679.34l-2.911,3.882a.416.416,0,0,1-.3.165h-.03a.412.412,0,0,1-.292-.122l-1.5-1.494a.848.848,0,0,0-1.2,1.2l2.493,2.493a.568.568,0,0,1,.086.061.576.576,0,0,1,.057.058l.03.013c.025.011.051.023.08.038s.042.022.064.035l.021.013a.854.854,0,0,0,.29.058h0a.837.837,0,0,0,.332-.075c.009-.005.017-.013.026-.019.026-.02.052-.04.081-.058s.058-.034.086-.05l.053-.031a.793.793,0,0,1,.06-.083.553.553,0,0,1,.07-.065l3.753-5a.845.845,0,0,0-.171-1.185Z" transform="translate(-288.07 -102.026)" fill="#73d7ff"/>
        <path id="Tracciato_59905" data-name="Tracciato 59905" d="M300.778,123.233a.848.848,0,0,0-1.186.17l-2.911,3.882a.412.412,0,0,1-.3.164l-.03,0a.412.412,0,0,1-.292-.122l-1.5-1.494a.847.847,0,0,0-1.2,1.2l2.493,2.494a.567.567,0,0,1,.086.061.5.5,0,0,1,.057.058l.03.013.08.037.064.036.021.013a.854.854,0,0,0,.29.058h0a.839.839,0,0,0,.332-.076.234.234,0,0,0,.026-.019c.026-.02.052-.039.081-.057s.058-.034.086-.05l.053-.031a.708.708,0,0,1,.06-.083.493.493,0,0,1,.07-.065l3.753-5a.846.846,0,0,0-.17-1.185Z" transform="translate(-288.07 -102.881)" fill="#73d7ff"/>
        <path id="Tracciato_59906" data-name="Tracciato 59906" d="M300.27,131.487a.839.839,0,0,0-.678.339l-2.911,3.882a.412.412,0,0,1-.3.164h-.03a.411.411,0,0,1-.292-.121l-1.5-1.494a.846.846,0,0,0-1.2,0,.849.849,0,0,0,0,1.2l2.493,2.494a.551.551,0,0,1,.086.06.576.576,0,0,1,.057.059l.03.013.08.038.064.036.021.013a.854.854,0,0,0,.29.058h0a.839.839,0,0,0,.332-.076.232.232,0,0,0,.026-.019c.026-.02.052-.039.081-.057s.058-.034.086-.05l.053-.032a.8.8,0,0,1,.06-.082.445.445,0,0,1,.07-.065l3.753-5a.846.846,0,0,0-.678-1.353Z" transform="translate(-288.07 -103.735)" fill="#73d7ff"/>
        <path id="Tracciato_59907" data-name="Tracciato 59907" d="M303.789,106.07a.848.848,0,1,0-.847-.847A.849.849,0,0,0,303.789,106.07Z" transform="translate(-289.067 -100.985)" fill="#003575"/>
      </g>
    </g>
    <g id="Raggruppa_7455" data-name="Raggruppa 7455" transform="translate(307.316 119.956)">
      <path id="Tracciato_59908" data-name="Tracciato 59908" d="M323.827,128.021a4.856,4.856,0,1,0-9.6-1.023c0,.092,0,.184.007.277a5.588,5.588,0,0,0,.911,11.1c.192,0,.386-.01.578-.029a.481.481,0,0,0-.1-.957,4.487,4.487,0,0,1-.479.025,4.627,4.627,0,0,1-.347-9.242.48.48,0,0,0,.439-.554,3.9,3.9,0,1,1,7.74-.622,3.887,3.887,0,0,1-.169,1.137.482.482,0,0,0,.259.577,4.5,4.5,0,0,1-2.84,8.475.48.48,0,0,0-.2.939,5.457,5.457,0,0,0,3.807-10.1Z" transform="translate(-309.553 -122.141)" fill="#73d7ff"/>
      <path id="Tracciato_59909" data-name="Tracciato 59909" d="M320.306,135.237l1.292-1.18,2.148.815a.5.5,0,0,0,.171.031.481.481,0,0,0,.171-.93l-1.695-.643.826-.754a.481.481,0,1,0-.648-.71l-2.913,2.661a.481.481,0,0,0,.648.71Zm-.427-5.071,1.515-1.094a.481.481,0,0,0-.563-.779l-.782.565L320,127.177a.481.481,0,0,0-.961.031l.075,2.329-.3.215-.2-.575-.533-1.839a.48.48,0,0,0-.923.267l.536,1.851.006.022.432,1.265-.289,3.551-.444-.417a.47.47,0,0,0-.167-.1l-.615-.22-.153-.862.147-2.892a.48.48,0,1,0-.96-.049l-.115,2.261-.312-.145-1.023-.917a.48.48,0,0,0-.642.715l1.076.965a.49.49,0,0,0,.119.077l.8.373.09.509-.573.2-2.19-.249a.481.481,0,0,0-.109.955l1.531.173-.56,1a.481.481,0,1,0,.839.469l.807-1.443.793-.279.628.224,1,.94.023,2.11v4.613a.48.48,0,0,0,.961,0v-4.619l-.031-2.917.331-4.047.032-.02.747-.539Z" transform="translate(-309.837 -122.605)" fill="#003575"/>
    </g>
  </g>
</svg>
