<svg xmlns="http://www.w3.org/2000/svg" width="34.131" height="29.776" viewBox="0 0 34.131 29.776">
  <g id="Raggruppa_7449" data-name="Raggruppa 7449" transform="translate(-141.5 -325.002)">
    <rect id="Rettangolo_145951" data-name="Rettangolo 145951" width="30.197" height="27.731" transform="translate(142.525 325.935)" fill="#fff"/>
    <rect id="Rettangolo_145952" data-name="Rettangolo 145952" width="6.011" height="6.561" transform="translate(142.493 336.407)" fill="#73d7ff"/>
    <rect id="Rettangolo_145953" data-name="Rettangolo 145953" width="20.51" height="19.694" rx="1.463" transform="translate(148.946 329.996)" fill="#73d7ff"/>
    <path id="Tracciato_59882" data-name="Tracciato 59882" d="M178.52,338.676l3.038,3.038-6.249,6.249-3.017-3.017Z" transform="translate(-6.907 -3.067)" fill="#fff"/>
    <path id="Tracciato_59883" data-name="Tracciato 59883" d="M171.49,347.463l-1.914,1.914,2.866,2.866,1.95-1.95Z" transform="translate(-6.297 -5.038)" fill="#73d7ff"/>
    <path id="Tracciato_59884" data-name="Tracciato 59884" d="M168.421,350.512l-2.3,2.3V355.9H168.8l2.539-2.539Z" transform="translate(-5.522 -5.722)" fill="#fff"/>
    <g id="Raggruppa_7449-2" data-name="Raggruppa 7449" transform="translate(141.5 325.002)">
      <path id="Tracciato_59885" data-name="Tracciato 59885" d="M143.321,354.778a1.823,1.823,0,0,1-1.821-1.821V326.823A1.823,1.823,0,0,1,143.321,325h28.312a1.823,1.823,0,0,1,1.821,1.821v5.445a.731.731,0,0,1-1.463,0v-5.445a.357.357,0,0,0-.358-.358H143.321a.357.357,0,0,0-.358.358v8.711a.357.357,0,0,0,.358.358h4.356a.357.357,0,0,0,.358-.358v-5.445a.732.732,0,0,1,.731-.731h20.69a.733.733,0,0,1,.731.731v2.178a.732.732,0,0,1-1.464,0v-1.089a.357.357,0,0,0-.357-.357H149.854a.357.357,0,0,0-.358.357V348.6a.357.357,0,0,0,.358.358h6.535a.731.731,0,0,1,0,1.463h-7.624a.732.732,0,0,1-.731-.732v-5.445a.358.358,0,0,0-.358-.358h-4.356a.358.358,0,0,0-.358.358v8.712a.357.357,0,0,0,.358.357h28.312a.357.357,0,0,0,.358-.357v-7.623a.731.731,0,0,1,1.463,0v7.623a1.823,1.823,0,0,1-1.821,1.821Zm0-17.424a.358.358,0,0,0-.358.358v4.356a.357.357,0,0,0,.358.358h4.356a.357.357,0,0,0,.358-.358v-4.356a.358.358,0,0,0-.358-.358Z" transform="translate(-141.5 -325.002)" fill="#003575"/>
      <path id="Tracciato_59886" data-name="Tracciato 59886" d="M164.693,354.345a.739.739,0,0,1-.517-.214.731.731,0,0,1-.192-.693l1.089-4.357a.729.729,0,0,1,.192-.34l10.889-10.889a.73.73,0,0,1,1.035,0l3.266,3.267a.732.732,0,0,1,0,1.035l-10.889,10.889a.729.729,0,0,1-.34.192l-4.356,1.089A.719.719,0,0,1,164.693,354.345Zm3.267-6.083a.358.358,0,0,0-.253.1l-1.195,1.2a.355.355,0,0,0-.094.166l-.576,2.3a.357.357,0,0,0,.347.444.37.37,0,0,0,.087-.011l2.3-.576a.355.355,0,0,0,.166-.094l1.2-1.195a.357.357,0,0,0,0-.5l-1.727-1.728A.357.357,0,0,0,167.96,348.262Zm2.177-2.177a.357.357,0,0,0-.253.1l-.638.638a.358.358,0,0,0,0,.506l1.727,1.727a.358.358,0,0,0,.506,0l.638-.638a.358.358,0,0,0,0-.506l-1.727-1.727A.357.357,0,0,0,170.137,346.084Zm6.534-6.534a.356.356,0,0,0-.253.1l-4.993,4.994a.357.357,0,0,0,0,.5l1.727,1.728a.357.357,0,0,0,.5,0l4.994-4.994a.358.358,0,0,0,0-.506l-1.727-1.727A.356.356,0,0,0,176.671,339.55Z" transform="translate(-146.538 -327.836)" fill="#003575"/>
      <circle id="Ellisse_318" data-name="Ellisse 318" cx="0.776" cy="0.776" r="0.776" transform="translate(3.223 21.691)" fill="#003575"/>
      <circle id="Ellisse_319" data-name="Ellisse 319" cx="0.776" cy="0.776" r="0.776" transform="translate(3.223 6.445)" fill="#003575"/>
    </g>
  </g>
</svg>
