<?xml version="1.0" encoding="utf-8"?>
<!-- Generator: Adobe Illustrator 24.3.0, SVG Export Plug-In . SVG Version: 6.00 Build 0)  -->
<svg version="1.1" id="Livello_1" xmlns="http://www.w3.org/2000/svg" xmlns:xlink="http://www.w3.org/1999/xlink" x="0px" y="0px"
	 viewBox="0 0 32.9 32.9" style="enable-background:new 0 0 32.9 32.9;" xml:space="preserve">
<style type="text/css">
	.st0{fill:#003575;}
	.st1{fill:#73D7FF;}
</style>
<g>
	<path class="st0" d="M19.7,17.3c0.5,0.6,0.4,1.5-0.2,1.9L9.9,27c0,0-2.5,2-3.6,2.9c-1.1,0.9-2.3,0.3-2.8-0.3c-0.5-0.6-1-1.3-1-1.3
		c-0.7-0.9-0.9-2.4-0.5-3.5l2-4.8c0,0,1.4-5.7,1.5-6.1L6.9,16c0.5,0.6,1.3,0.9,2,0.8c0.4-0.1,0.7-0.2,1-0.5c0.9-0.8,1.1-2.1,0.3-3.1
		L9,11.6l3.2-1.5c0.1-0.1,0.3-0.1,0.4-0.1c0.6-0.1,1.3,0.1,1.7,0.6L19.7,17.3z M7.5,26.3L4.8,23l-1,2.6c-0.1,0.3,0,1.1,0.2,1.4
		l1,1.2L7.5,26.3z M7.7,22.9l2.7-2.2c0.2-0.1,0.2-0.4,0.1-0.6c-0.1-0.2-0.4-0.2-0.6-0.1l-2.7,2.2C7,22.4,7,22.7,7.1,22.8
		C7.2,23,7.4,23,7.5,23C7.6,23,7.7,22.9,7.7,22.9z M11.9,21.9c-0.1-0.2-0.4-0.2-0.6-0.1L8.6,24c-0.2,0.1-0.2,0.4-0.1,0.6
		c0.1,0.1,0.2,0.2,0.4,0.1c0.1,0,0.1,0,0.2-0.1l2.7-2.2C12.1,22.3,12.1,22,11.9,21.9z M16.2,16.7c-0.5-0.6-1.4-0.7-1.9-0.2
		c-0.6,0.5-0.7,1.4-0.2,1.9c0.5,0.6,1.4,0.7,1.9,0.2C16.5,18.1,16.6,17.3,16.2,16.7z"/>
	<path class="st1" d="M3.4,10.1C3,9.6,3,8.8,3.6,8.4C4.1,7.9,4.9,8,5.3,8.5l4.3,5.3c0.4,0.5,0.3,1.3-0.2,1.7
		c-0.2,0.1-0.4,0.2-0.6,0.3c-0.4,0.1-0.9-0.1-1.1-0.4L3.4,10.1z"/>
	<path class="st1" d="M31.5,5.9l-1,0.2c-0.1-0.7-0.5-1.3-0.9-1.7l0.7-0.7c-0.6-0.6-1.3-1.1-2.1-1.4l-0.3,1c-0.6-0.2-1.3-0.3-2-0.2
		c0-0.2-0.2-1-0.2-1c-0.8,0.1-1.6,0.5-2.3,1l0.6,0.8c0,0-1.6,1.3-1.6,1.3l-0.6-0.8l-1.6,1.3L21,6.4l-1.6,1.3l-0.6-0.8l-1.6,1.3
		L17.8,9l-1.6,1.3l-0.6-0.8L14.9,10c0,0,1.7,2.1,1.7,2.1l8.5-6.9c0.3-0.2,0.7-0.4,1.1-0.5C27,4.7,27.8,5,28.3,5.7
		c0.8,1,0.6,2.4-0.3,3.2l-8.5,6.9c0,0,1,1.2,1.1,1.4l0.7-0.6l0.6,0.8l1.6-1.3l-0.6-0.8l1.6-1.3l0.6,0.8l1.6-1.3L26,12.7l1.6-1.3
		l0.6,0.8c0,0,1.8-1.4,2.1-1.7l-0.7-0.7c0.5-0.5,0.8-1.1,1-1.7l1,0.3C31.7,7.5,31.7,6.7,31.5,5.9z"/>
</g>
</svg>
